<svg xmlns="http://www.w3.org/2000/svg" width="3482" height="434" font-family="Segoe UI, Arial, sans-serif">
<text x="30" y="28" font-size="20" font-weight="700" fill="#333">吹波糖（バブルガムフェロー）1995年3月14日</text>
<path d="M 83.0 312 L 83.0 324.0 L 77.0 336" fill="none" stroke="#b9b3c9" stroke-width="1"/>
<path d="M 83.0 312 L 83.0 324.0 L 89.0 336" fill="none" stroke="#b9b3c9" stroke-width="1"/>
<path d="M 189.0 254 L 189.0 266.0 L 183.0 278" fill="none" stroke="#b9b3c9" stroke-width="1"/>
<path d="M 295.0 312 L 295.0 324.0 L 289.0 336" fill="none" stroke="#b9b3c9" stroke-width="1"/>
<path d="M 295.0 312 L 295.0 324.0 L 301.0 336" fill="none" stroke="#b9b3c9" stroke-width="1"/>
<path d="M 189.0 254 L 189.0 266.0 L 195.0 278" fill="none" stroke="#b9b3c9" stroke-width="1"/>
<path d="M 401.0 196 L 401.0 208.0 L 395.0 220" fill="none" stroke="#b9b3c9" stroke-width="1"/>
<path d="M 507.0 312 L 507.0 324.0 L 501.0 336" fill="none" stroke="#b9b3c9" stroke-width="1"/>
<path d="M 507.0 312 L 507.0 324.0 L 513.0 336" fill="none" stroke="#b9b3c9" stroke-width="1"/>
<path d="M 613.0 254 L 613.0 266.0 L 607.0 278" fill="none" stroke="#b9b3c9" stroke-width="1"/>
<path d="M 719.0 312 L 719.0 324.0 L 713.0 336" fill="none" stroke="#b9b3c9" stroke-width="1"/>
<path d="M 719.0 312 L 719.0 324.0 L 725.0 336" fill="none" stroke="#b9b3c9" stroke-width="1"/>
<path d="M 613.0 254 L 613.0 266.0 L 619.0 278" fill="none" stroke="#b9b3c9" stroke-width="1"/>
<path d="M 401.0 196 L 401.0 208.0 L 407.0 220" fill="none" stroke="#b9b3c9" stroke-width="1"/>
<path d="M 825.0 138 L 825.0 150.0 L 819.0 162" fill="none" stroke="#b9b3c9" stroke-width="1"/>
<path d="M 931.0 312 L 931.0 324.0 L 925.0 336" fill="none" stroke="#b9b3c9" stroke-width="1"/>
<path d="M 931.0 312 L 931.0 324.0 L 937.0 336" fill="none" stroke="#b9b3c9" stroke-width="1"/>
<path d="M 1037.0 254 L 1037.0 266.0 L 1031.0 278" fill="none" stroke="#b9b3c9" stroke-width="1"/>
<path d="M 1143.0 312 L 1143.0 324.0 L 1137.0 336" fill="none" stroke="#b9b3c9" stroke-width="1"/>
<path d="M 1143.0 312 L 1143.0 324.0 L 1149.0 336" fill="none" stroke="#b9b3c9" stroke-width="1"/>
<path d="M 1037.0 254 L 1037.0 266.0 L 1043.0 278" fill="none" stroke="#b9b3c9" stroke-width="1"/>
<path d="M 1249.0 196 L 1249.0 208.0 L 1243.0 220" fill="none" stroke="#b9b3c9" stroke-width="1"/>
<path d="M 1355.0 312 L 1355.0 324.0 L 1349.0 336" fill="none" stroke="#b9b3c9" stroke-width="1"/>
<path d="M 1355.0 312 L 1355.0 324.0 L 1361.0 336" fill="none" stroke="#b9b3c9" stroke-width="1"/>
<path d="M 1461.0 254 L 1461.0 266.0 L 1455.0 278" fill="none" stroke="#b9b3c9" stroke-width="1"/>
<path d="M 1567.0 312 L 1567.0 324.0 L 1561.0 336" fill="none" stroke="#b9b3c9" stroke-width="1"/>
<path d="M 1567.0 312 L 1567.0 324.0 L 1573.0 336" fill="none" stroke="#b9b3c9" stroke-width="1"/>
<path d="M 1461.0 254 L 1461.0 266.0 L 1467.0 278" fill="none" stroke="#b9b3c9" stroke-width="1"/>
<path d="M 1249.0 196 L 1249.0 208.0 L 1255.0 220" fill="none" stroke="#b9b3c9" stroke-width="1"/>
<path d="M 825.0 138 L 825.0 150.0 L 831.0 162" fill="none" stroke="#b9b3c9" stroke-width="1"/>
<path d="M 1673.0 80 L 1673.0 92.0 L 1667.0 104" fill="none" stroke="#b9b3c9" stroke-width="1"/>
<path d="M 1779.0 312 L 1779.0 324.0 L 1773.0 336" fill="none" stroke="#b9b3c9" stroke-width="1"/>
<path d="M 1779.0 312 L 1779.0 324.0 L 1785.0 336" fill="none" stroke="#b9b3c9" stroke-width="1"/>
<path d="M 1885.0 254 L 1885.0 266.0 L 1879.0 278" fill="none" stroke="#b9b3c9" stroke-width="1"/>
<path d="M 1991.0 312 L 1991.0 324.0 L 1985.0 336" fill="none" stroke="#b9b3c9" stroke-width="1"/>
<path d="M 1991.0 312 L 1991.0 324.0 L 1997.0 336" fill="none" stroke="#b9b3c9" stroke-width="1"/>
<path d="M 1885.0 254 L 1885.0 266.0 L 1891.0 278" fill="none" stroke="#b9b3c9" stroke-width="1"/>
<path d="M 2097.0 196 L 2097.0 208.0 L 2091.0 220" fill="none" stroke="#b9b3c9" stroke-width="1"/>
<path d="M 2203.0 312 L 2203.0 324.0 L 2197.0 336" fill="none" stroke="#b9b3c9" stroke-width="1"/>
<path d="M 2203.0 312 L 2203.0 324.0 L 2209.0 336" fill="none" stroke="#b9b3c9" stroke-width="1"/>
<path d="M 2309.0 254 L 2309.0 266.0 L 2303.0 278" fill="none" stroke="#b9b3c9" stroke-width="1"/>
<path d="M 2415.0 312 L 2415.0 324.0 L 2409.0 336" fill="none" stroke="#b9b3c9" stroke-width="1"/>
<path d="M 2415.0 312 L 2415.0 324.0 L 2421.0 336" fill="none" stroke="#b9b3c9" stroke-width="1"/>
<path d="M 2309.0 254 L 2309.0 266.0 L 2315.0 278" fill="none" stroke="#b9b3c9" stroke-width="1"/>
<path d="M 2097.0 196 L 2097.0 208.0 L 2103.0 220" fill="none" stroke="#b9b3c9" stroke-width="1"/>
<path d="M 2521.0 138 L 2521.0 150.0 L 2515.0 162" fill="none" stroke="#b9b3c9" stroke-width="1"/>
<path d="M 2627.0 312 L 2627.0 324.0 L 2621.0 336" fill="none" stroke="#b9b3c9" stroke-width="1"/>
<path d="M 2627.0 312 L 2627.0 324.0 L 2633.0 336" fill="none" stroke="#b9b3c9" stroke-width="1"/>
<path d="M 2733.0 254 L 2733.0 266.0 L 2727.0 278" fill="none" stroke="#b9b3c9" stroke-width="1"/>
<path d="M 2839.0 312 L 2839.0 324.0 L 2833.0 336" fill="none" stroke="#b9b3c9" stroke-width="1"/>
<path d="M 2839.0 312 L 2839.0 324.0 L 2845.0 336" fill="none" stroke="#b9b3c9" stroke-width="1"/>
<path d="M 2733.0 254 L 2733.0 266.0 L 2739.0 278" fill="none" stroke="#b9b3c9" stroke-width="1"/>
<path d="M 2945.0 196 L 2945.0 208.0 L 2939.0 220" fill="none" stroke="#b9b3c9" stroke-width="1"/>
<path d="M 3051.0 312 L 3051.0 324.0 L 3045.0 336" fill="none" stroke="#b9b3c9" stroke-width="1"/>
<path d="M 3051.0 312 L 3051.0 324.0 L 3057.0 336" fill="none" stroke="#b9b3c9" stroke-width="1"/>
<path d="M 3157.0 254 L 3157.0 266.0 L 3151.0 278" fill="none" stroke="#b9b3c9" stroke-width="1"/>
<path d="M 3263.0 312 L 3263.0 324.0 L 3257.0 336" fill="none" stroke="#b9b3c9" stroke-width="1"/>
<path d="M 3263.0 312 L 3263.0 324.0 L 3269.0 336" fill="none" stroke="#b9b3c9" stroke-width="1"/>
<path d="M 3157.0 254 L 3157.0 266.0 L 3163.0 278" fill="none" stroke="#b9b3c9" stroke-width="1"/>
<path d="M 2945.0 196 L 2945.0 208.0 L 2951.0 220" fill="none" stroke="#b9b3c9" stroke-width="1"/>
<path d="M 2521.0 138 L 2521.0 150.0 L 2527.0 162" fill="none" stroke="#b9b3c9" stroke-width="1"/>
<path d="M 1673.0 80 L 1673.0 92.0 L 1679.0 104" fill="none" stroke="#b9b3c9" stroke-width="1"/>
<rect x="1603.0" y="46" width="140" height="44" rx="8" fill="#fff6f9" stroke="#e0759f" stroke-width="1.5"/>
<text x="1657.0" y="66" font-size="14" font-weight="700" fill="#8a3b5e">吹波糖</text>
<text x="1657.0" y="79" font-size="9" fill="#b0768f">1995年3月14日</text>
<rect x="777.0" y="104" width="96" height="34" rx="6" fill="#f4f2fa" stroke="#d9577c"/>
<text x="825.0" y="117" font-size="10.5" font-weight="600" fill="#d9577c" text-anchor="middle">バブルカンパニー</text>
<text x="825.0" y="130" font-size="8.5" fill="#999" text-anchor="middle">1977年</text>
<rect x="353.0" y="162" width="96" height="34" rx="6" fill="#f4f2fa" stroke="#4a7ac7"/>
<text x="401.0" y="175" font-size="10.5" font-weight="600" fill="#4a7ac7" text-anchor="middle">Lyphard</text>
<text x="401.0" y="188" font-size="8.5" fill="#999" text-anchor="middle">1969年</text>
<rect x="141.0" y="220" width="96" height="34" rx="6" fill="#f4f2fa" stroke="#4a7ac7"/>
<text x="189.0" y="233" font-size="10.5" font-weight="600" fill="#4a7ac7" text-anchor="middle">NorthernDancer</text>
<text x="189.0" y="246" font-size="8.5" fill="#999" text-anchor="middle">1961年5月27日</text>
<rect x="35.0" y="278" width="96" height="34" rx="6" fill="#f4f2fa" stroke="#4a7ac7"/>
<text x="83.0" y="291" font-size="10.5" font-weight="600" fill="#4a7ac7" text-anchor="middle">Nearctic</text>
<text x="83.0" y="304" font-size="8.5" fill="#999" text-anchor="middle">1954年2月11日</text>
<rect x="-18.0" y="336" width="96" height="34" rx="6" fill="#f4f2fa" stroke="#4a7ac7"/>
<text x="30.0" y="349" font-size="10.5" font-weight="600" fill="#4a7ac7" text-anchor="middle">Nearco</text>
<text x="30.0" y="362" font-size="8.5" fill="#999" text-anchor="middle">1935年</text>
<rect x="88.0" y="336" width="96" height="34" rx="6" fill="#f4f2fa" stroke="#d9577c"/>
<text x="136.0" y="349" font-size="10.5" font-weight="600" fill="#d9577c" text-anchor="middle">LadyAngela</text>
<text x="136.0" y="362" font-size="8.5" fill="#999" text-anchor="middle">1944年</text>
<rect x="247.0" y="278" width="96" height="34" rx="6" fill="#f4f2fa" stroke="#d9577c"/>
<text x="295.0" y="291" font-size="10.5" font-weight="600" fill="#d9577c" text-anchor="middle">Natalma</text>
<text x="295.0" y="304" font-size="8.5" fill="#999" text-anchor="middle">1957年</text>
<rect x="194.0" y="336" width="96" height="34" rx="6" fill="#f4f2fa" stroke="#4a7ac7"/>
<text x="242.0" y="349" font-size="10.5" font-weight="600" fill="#4a7ac7" text-anchor="middle">NativeDancer</text>
<text x="242.0" y="362" font-size="8.5" fill="#999" text-anchor="middle">1950年</text>
<rect x="300.0" y="336" width="96" height="34" rx="6" fill="#f4f2fa" stroke="#d9577c"/>
<text x="348.0" y="349" font-size="10.5" font-weight="600" fill="#d9577c" text-anchor="middle">Almahmoud</text>
<text x="348.0" y="362" font-size="8.5" fill="#999" text-anchor="middle">1947年1月1日</text>
<rect x="565.0" y="220" width="96" height="34" rx="6" fill="#f4f2fa" stroke="#d9577c"/>
<text x="613.0" y="233" font-size="10.5" font-weight="600" fill="#d9577c" text-anchor="middle">Goofed</text>
<text x="613.0" y="246" font-size="8.5" fill="#999" text-anchor="middle">1960年3月29日</text>
<rect x="459.0" y="278" width="96" height="34" rx="6" fill="#f4f2fa" stroke="#4a7ac7"/>
<text x="507.0" y="291" font-size="10.5" font-weight="600" fill="#4a7ac7" text-anchor="middle">CourtMartial</text>
<text x="507.0" y="304" font-size="8.5" fill="#999" text-anchor="middle">1942年</text>
<rect x="406.0" y="336" width="96" height="34" rx="6" fill="#f4f2fa" stroke="#4a7ac7"/>
<text x="454.0" y="349" font-size="10.5" font-weight="600" fill="#4a7ac7" text-anchor="middle">FairTrial</text>
<text x="454.0" y="362" font-size="8.5" fill="#999" text-anchor="middle">1932年</text>
<rect x="512.0" y="336" width="96" height="34" rx="6" fill="#f4f2fa" stroke="#777"/>
<text x="560.0" y="349" font-size="10.5" font-weight="600" fill="#777" text-anchor="middle">Instantaneous</text>
<text x="560.0" y="362" font-size="8.5" fill="#999" text-anchor="middle">1931年</text>
<rect x="671.0" y="278" width="96" height="34" rx="6" fill="#f4f2fa" stroke="#d9577c"/>
<text x="719.0" y="291" font-size="10.5" font-weight="600" fill="#d9577c" text-anchor="middle">Barra</text>
<text x="719.0" y="304" font-size="8.5" fill="#999" text-anchor="middle">1950年</text>
<rect x="618.0" y="336" width="96" height="34" rx="6" fill="#f4f2fa" stroke="#777"/>
<text x="666.0" y="349" font-size="10.5" font-weight="600" fill="#777" text-anchor="middle">Formor</text>
<text x="666.0" y="362" font-size="8.5" fill="#999" text-anchor="middle">1934年</text>
<rect x="724.0" y="336" width="96" height="34" rx="6" fill="#f4f2fa" stroke="#777"/>
<text x="772.0" y="349" font-size="10.5" font-weight="600" fill="#777" text-anchor="middle">LaFavorite</text>
<text x="772.0" y="362" font-size="8.5" fill="#999" text-anchor="middle">1934年</text>
<rect x="1201.0" y="162" width="96" height="34" rx="6" fill="#f4f2fa" stroke="#d9577c"/>
<text x="1249.0" y="175" font-size="10.5" font-weight="600" fill="#d9577c" text-anchor="middle">Prodice</text>
<text x="1249.0" y="188" font-size="8.5" fill="#999" text-anchor="middle">1969年2月2日</text>
<rect x="989.0" y="220" width="96" height="34" rx="6" fill="#f4f2fa" stroke="#4a7ac7"/>
<text x="1037.0" y="233" font-size="10.5" font-weight="600" fill="#4a7ac7" text-anchor="middle">Prominer</text>
<text x="1037.0" y="246" font-size="8.5" fill="#999" text-anchor="middle">1962年</text>
<rect x="883.0" y="278" width="96" height="34" rx="6" fill="#f4f2fa" stroke="#4a7ac7"/>
<text x="931.0" y="291" font-size="10.5" font-weight="600" fill="#4a7ac7" text-anchor="middle">BeauSabreur</text>
<text x="931.0" y="304" font-size="8.5" fill="#999" text-anchor="middle">1945年</text>
<rect x="830.0" y="336" width="96" height="34" rx="6" fill="#f4f2fa" stroke="#777"/>
<text x="878.0" y="349" font-size="10.5" font-weight="600" fill="#777" text-anchor="middle">HisHighness</text>
<text x="878.0" y="362" font-size="8.5" fill="#999" text-anchor="middle">1936年</text>
<rect x="936.0" y="336" width="96" height="34" rx="6" fill="#f4f2fa" stroke="#777"/>
<text x="984.0" y="349" font-size="10.5" font-weight="600" fill="#777" text-anchor="middle">Mashaq</text>
<text x="984.0" y="362" font-size="8.5" fill="#999" text-anchor="middle">1939年</text>
<rect x="1095.0" y="278" width="96" height="34" rx="6" fill="#f4f2fa" stroke="#d9577c"/>
<text x="1143.0" y="291" font-size="10.5" font-weight="600" fill="#d9577c" text-anchor="middle">SnobHill</text>
<text x="1143.0" y="304" font-size="8.5" fill="#999" text-anchor="middle">1957年</text>
<rect x="1042.0" y="336" width="96" height="34" rx="6" fill="#f4f2fa" stroke="#4a7ac7"/>
<text x="1090.0" y="349" font-size="10.5" font-weight="600" fill="#4a7ac7" text-anchor="middle">Rockefella</text>
<text x="1090.0" y="362" font-size="8.5" fill="#999" text-anchor="middle">1941年</text>
<rect x="1148.0" y="336" width="96" height="34" rx="6" fill="#f4f2fa" stroke="#777"/>
<text x="1196.0" y="349" font-size="10.5" font-weight="600" fill="#777" text-anchor="middle">Rossenhall</text>
<text x="1196.0" y="362" font-size="8.5" fill="#999" text-anchor="middle">1949年</text>
<rect x="1413.0" y="220" width="96" height="34" rx="6" fill="#f4f2fa" stroke="#d9577c"/>
<text x="1461.0" y="233" font-size="10.5" font-weight="600" fill="#d9577c" text-anchor="middle">Euridice</text>
<text x="1461.0" y="246" font-size="8.5" fill="#999" text-anchor="middle">1962年</text>
<rect x="1307.0" y="278" width="96" height="34" rx="6" fill="#f4f2fa" stroke="#4a7ac7"/>
<text x="1355.0" y="291" font-size="10.5" font-weight="600" fill="#4a7ac7" text-anchor="middle">Tabriz</text>
<text x="1355.0" y="304" font-size="8.5" fill="#999" text-anchor="middle">1947年</text>
<rect x="1254.0" y="336" width="96" height="34" rx="6" fill="#f4f2fa" stroke="#777"/>
<text x="1302.0" y="349" font-size="10.5" font-weight="600" fill="#777" text-anchor="middle">Tehran</text>
<text x="1302.0" y="362" font-size="8.5" fill="#999" text-anchor="middle">1941年</text>
<rect x="1360.0" y="336" width="96" height="34" rx="6" fill="#f4f2fa" stroke="#777"/>
<text x="1408.0" y="349" font-size="10.5" font-weight="600" fill="#777" text-anchor="middle">LaLi</text>
<text x="1408.0" y="362" font-size="8.5" fill="#999" text-anchor="middle">1935年</text>
<rect x="1519.0" y="278" width="96" height="34" rx="6" fill="#f4f2fa" stroke="#d9577c"/>
<text x="1567.0" y="291" font-size="10.5" font-weight="600" fill="#d9577c" text-anchor="middle">Euroclydon</text>
<text x="1567.0" y="304" font-size="8.5" fill="#999" text-anchor="middle">1947年</text>
<rect x="1466.0" y="336" width="96" height="34" rx="6" fill="#f4f2fa" stroke="#4a7ac7"/>
<text x="1514.0" y="349" font-size="10.5" font-weight="600" fill="#4a7ac7" text-anchor="middle">Tourbillon</text>
<text x="1514.0" y="362" font-size="8.5" fill="#999" text-anchor="middle">1928年</text>
<rect x="1572.0" y="336" width="96" height="34" rx="6" fill="#f4f2fa" stroke="#777"/>
<text x="1620.0" y="349" font-size="10.5" font-weight="600" fill="#777" text-anchor="middle">Astaria</text>
<text x="1620.0" y="362" font-size="8.5" fill="#999" text-anchor="middle">1935年</text>
<rect x="2473.0" y="104" width="96" height="34" rx="6" fill="#f4f2fa" stroke="#4a7ac7"/>
<text x="2521.0" y="117" font-size="10.5" font-weight="600" fill="#4a7ac7" text-anchor="middle">トニービン</text>
<text x="2521.0" y="130" font-size="8.5" fill="#999" text-anchor="middle">1983年4月7日</text>
<rect x="2049.0" y="162" width="96" height="34" rx="6" fill="#f4f2fa" stroke="#4a7ac7"/>
<text x="2097.0" y="175" font-size="10.5" font-weight="600" fill="#4a7ac7" text-anchor="middle">カンパラ</text>
<text x="2097.0" y="188" font-size="8.5" fill="#999" text-anchor="middle">1976年</text>
<rect x="1837.0" y="220" width="96" height="34" rx="6" fill="#f4f2fa" stroke="#4a7ac7"/>
<text x="1885.0" y="233" font-size="10.5" font-weight="600" fill="#4a7ac7" text-anchor="middle">Kalamoun</text>
<text x="1885.0" y="246" font-size="8.5" fill="#999" text-anchor="middle">1970年</text>
<rect x="1731.0" y="278" width="96" height="34" rx="6" fill="#f4f2fa" stroke="#4a7ac7"/>
<text x="1779.0" y="291" font-size="10.5" font-weight="600" fill="#4a7ac7" text-anchor="middle">ゼダーン</text>
<text x="1779.0" y="304" font-size="8.5" fill="#999" text-anchor="middle">1965年</text>
<rect x="1678.0" y="336" width="96" height="34" rx="6" fill="#f4f2fa" stroke="#4a7ac7"/>
<text x="1726.0" y="349" font-size="10.5" font-weight="600" fill="#4a7ac7" text-anchor="middle">GreySovereign</text>
<text x="1726.0" y="362" font-size="8.5" fill="#999" text-anchor="middle">1948年</text>
<rect x="1784.0" y="336" width="96" height="34" rx="6" fill="#f4f2fa" stroke="#777"/>
<text x="1832.0" y="349" font-size="10.5" font-weight="600" fill="#777" text-anchor="middle">Vareta</text>
<text x="1832.0" y="362" font-size="8.5" fill="#999" text-anchor="middle">1953年</text>
<rect x="1943.0" y="278" width="96" height="34" rx="6" fill="#f4f2fa" stroke="#d9577c"/>
<text x="1991.0" y="291" font-size="10.5" font-weight="600" fill="#d9577c" text-anchor="middle">Khairunissa</text>
<text x="1991.0" y="304" font-size="8.5" fill="#999" text-anchor="middle">1960年</text>
<rect x="1890.0" y="336" width="96" height="34" rx="6" fill="#f4f2fa" stroke="#4a7ac7"/>
<text x="1938.0" y="349" font-size="10.5" font-weight="600" fill="#4a7ac7" text-anchor="middle">PrinceBio</text>
<text x="1938.0" y="362" font-size="8.5" fill="#999" text-anchor="middle">1941年</text>
<rect x="1996.0" y="336" width="96" height="34" rx="6" fill="#f4f2fa" stroke="#777"/>
<text x="2044.0" y="349" font-size="10.5" font-weight="600" fill="#777" text-anchor="middle">Palariva</text>
<text x="2044.0" y="362" font-size="8.5" fill="#999" text-anchor="middle">1953年</text>
<rect x="2261.0" y="220" width="96" height="34" rx="6" fill="#f4f2fa" stroke="#d9577c"/>
<text x="2309.0" y="233" font-size="10.5" font-weight="600" fill="#d9577c" text-anchor="middle">StatePension</text>
<text x="2309.0" y="246" font-size="8.5" fill="#999" text-anchor="middle">1967年</text>
<rect x="2155.0" y="278" width="96" height="34" rx="6" fill="#f4f2fa" stroke="#4a7ac7"/>
<text x="2203.0" y="291" font-size="10.5" font-weight="600" fill="#4a7ac7" text-anchor="middle">オンリーフォアライフ</text>
<text x="2203.0" y="304" font-size="8.5" fill="#999" text-anchor="middle">1960年</text>
<rect x="2102.0" y="336" width="96" height="34" rx="6" fill="#f4f2fa" stroke="#777"/>
<text x="2150.0" y="349" font-size="10.5" font-weight="600" fill="#777" text-anchor="middle">Chanteur</text>
<text x="2150.0" y="362" font-size="8.5" fill="#999" text-anchor="middle">1942年</text>
<rect x="2208.0" y="336" width="96" height="34" rx="6" fill="#f4f2fa" stroke="#777"/>
<text x="2256.0" y="349" font-size="10.5" font-weight="600" fill="#777" text-anchor="middle">LifeSentence</text>
<text x="2256.0" y="362" font-size="8.5" fill="#999" text-anchor="middle">1949年</text>
<rect x="2367.0" y="278" width="96" height="34" rx="6" fill="#f4f2fa" stroke="#d9577c"/>
<text x="2415.0" y="291" font-size="10.5" font-weight="600" fill="#d9577c" text-anchor="middle">Lorelei</text>
<text x="2415.0" y="304" font-size="8.5" fill="#999" text-anchor="middle">1950年1月1日</text>
<rect x="2314.0" y="336" width="96" height="34" rx="6" fill="#f4f2fa" stroke="#4a7ac7"/>
<text x="2362.0" y="349" font-size="10.5" font-weight="600" fill="#4a7ac7" text-anchor="middle">PrinceChevalier</text>
<text x="2362.0" y="362" font-size="8.5" fill="#999" text-anchor="middle">1943年</text>
<rect x="2420.0" y="336" width="96" height="34" rx="6" fill="#f4f2fa" stroke="#777"/>
<text x="2468.0" y="349" font-size="10.5" font-weight="600" fill="#777" text-anchor="middle">RockGoddess</text>
<text x="2468.0" y="362" font-size="8.5" fill="#999" text-anchor="middle">1943年</text>
<rect x="2897.0" y="162" width="96" height="34" rx="6" fill="#f4f2fa" stroke="#d9577c"/>
<text x="2945.0" y="175" font-size="10.5" font-weight="600" fill="#d9577c" text-anchor="middle">SevernBridge</text>
<text x="2945.0" y="188" font-size="8.5" fill="#999" text-anchor="middle">1965年</text>
<rect x="2685.0" y="220" width="96" height="34" rx="6" fill="#f4f2fa" stroke="#4a7ac7"/>
<text x="2733.0" y="233" font-size="10.5" font-weight="600" fill="#4a7ac7" text-anchor="middle">Hornbeam</text>
<text x="2733.0" y="246" font-size="8.5" fill="#999" text-anchor="middle">1953年</text>
<rect x="2579.0" y="278" width="96" height="34" rx="6" fill="#f4f2fa" stroke="#4a7ac7"/>
<text x="2627.0" y="291" font-size="10.5" font-weight="600" fill="#4a7ac7" text-anchor="middle">Hyperion</text>
<text x="2627.0" y="304" font-size="8.5" fill="#999" text-anchor="middle">1930年</text>
<rect x="2526.0" y="336" width="96" height="34" rx="6" fill="#f4f2fa" stroke="#4a7ac7"/>
<text x="2574.0" y="349" font-size="10.5" font-weight="600" fill="#4a7ac7" text-anchor="middle">Gainsborough</text>
<text x="2574.0" y="362" font-size="8.5" fill="#999" text-anchor="middle">1915年</text>
<rect x="2632.0" y="336" width="96" height="34" rx="6" fill="#f4f2fa" stroke="#d9577c"/>
<text x="2680.0" y="349" font-size="10.5" font-weight="600" fill="#d9577c" text-anchor="middle">Selene</text>
<text x="2680.0" y="362" font-size="8.5" fill="#999" text-anchor="middle">1919年</text>
<rect x="2791.0" y="278" width="96" height="34" rx="6" fill="#f4f2fa" stroke="#d9577c"/>
<text x="2839.0" y="291" font-size="10.5" font-weight="600" fill="#d9577c" text-anchor="middle">Thicket</text>
<text x="2839.0" y="304" font-size="8.5" fill="#999" text-anchor="middle">1947年</text>
<rect x="2738.0" y="336" width="96" height="34" rx="6" fill="#f4f2fa" stroke="#4a7ac7"/>
<text x="2786.0" y="349" font-size="10.5" font-weight="600" fill="#4a7ac7" text-anchor="middle">Nasrullah</text>
<text x="2786.0" y="362" font-size="8.5" fill="#999" text-anchor="middle">1940年</text>
<rect x="2844.0" y="336" width="96" height="34" rx="6" fill="#f4f2fa" stroke="#777"/>
<text x="2892.0" y="349" font-size="10.5" font-weight="600" fill="#777" text-anchor="middle">ThornWood</text>
<text x="2892.0" y="362" font-size="8.5" fill="#999" text-anchor="middle">1942年</text>
<rect x="3109.0" y="220" width="96" height="34" rx="6" fill="#f4f2fa" stroke="#d9577c"/>
<text x="3157.0" y="233" font-size="10.5" font-weight="600" fill="#d9577c" text-anchor="middle">PriddyFair</text>
<text x="3157.0" y="246" font-size="8.5" fill="#999" text-anchor="middle">1956年</text>
<rect x="3003.0" y="278" width="96" height="34" rx="6" fill="#f4f2fa" stroke="#4a7ac7"/>
<text x="3051.0" y="291" font-size="10.5" font-weight="600" fill="#4a7ac7" text-anchor="middle">Preciptic</text>
<text x="3051.0" y="304" font-size="8.5" fill="#999" text-anchor="middle">1942年</text>
<rect x="2950.0" y="336" width="96" height="34" rx="6" fill="#f4f2fa" stroke="#4a7ac7"/>
<text x="2998.0" y="349" font-size="10.5" font-weight="600" fill="#4a7ac7" text-anchor="middle">Precipitation</text>
<text x="2998.0" y="362" font-size="8.5" fill="#999" text-anchor="middle">1933年</text>
<rect x="3056.0" y="336" width="96" height="34" rx="6" fill="#f4f2fa" stroke="#777"/>
<text x="3104.0" y="349" font-size="10.5" font-weight="600" fill="#777" text-anchor="middle">Artistic</text>
<text x="3104.0" y="362" font-size="8.5" fill="#999" text-anchor="middle">1930年</text>
<rect x="3215.0" y="278" width="96" height="34" rx="6" fill="#f4f2fa" stroke="#d9577c"/>
<text x="3263.0" y="291" font-size="10.5" font-weight="600" fill="#d9577c" text-anchor="middle">Campanette</text>
<text x="3263.0" y="304" font-size="8.5" fill="#999" text-anchor="middle">1948年</text>
<rect x="3162.0" y="336" width="96" height="34" rx="6" fill="#f4f2fa" stroke="#4a7ac7"/>
<text x="3210.0" y="349" font-size="10.5" font-weight="600" fill="#4a7ac7" text-anchor="middle">FairTrial</text>
<text x="3210.0" y="362" font-size="8.5" fill="#999" text-anchor="middle">1932年</text>
<rect x="3268.0" y="336" width="96" height="34" rx="6" fill="#f4f2fa" stroke="#777"/>
<text x="3316.0" y="349" font-size="10.5" font-weight="600" fill="#777" text-anchor="middle">Calluna</text>
<text x="3316.0" y="362" font-size="8.5" fill="#999" text-anchor="middle">1943年</text>
</svg>